<?xml version="1.0" encoding="UTF-8" standalone="no"?>
<!DOCTYPE svg PUBLIC "-//W3C//DTD SVG 1.1//EN" "http://www.w3.org/Graphics/SVG/1.1/DTD/svg11.dtd">
<svg width="100%" height="100%" viewBox="0 0 2272 1872" version="1.1" xmlns="http://www.w3.org/2000/svg" xmlns:xlink="http://www.w3.org/1999/xlink" xml:space="preserve" xmlns:serif="http://www.serif.com/" style="fill-rule:evenodd;clip-rule:evenodd;stroke-linejoin:round;stroke-miterlimit:2;">
    <g transform="matrix(1873,5.29389e-14,5.29389e-14,-1873,198.899,936.1)">
        <g id="back">
            <rect x="-0.106" y="-0.5" width="1.213" height="0.999" style="fill:url(#_Linear1);"/>
        </g>
    </g>
    <g id="Mountain-Landscape-View" serif:id="Mountain Landscape View">
        <g transform="matrix(1,0,0,1,994.517,729.101)">
            <path d="M0,592.234L853.97,0L1160.02,149.992L1223.02,109.494L1277.48,135.75L1277.48,578.971L251.068,578.971L0,592.234Z" style="fill:rgb(0,121,124);fill-rule:nonzero;"/>
        </g>
        <g transform="matrix(0.90716,0.420787,0.420787,-0.90716,2158.92,859.659)">
            <path d="M4.206,-19.472L101.422,-19.472L82.09,32.355L44.313,43.774L4.206,-19.472Z" style="fill:rgb(0,167,176);fill-rule:nonzero;"/>
        </g>
        <g transform="matrix(1,0,0,1,1848.49,953)">
            <path d="M0,-223.899L68.023,-190.562L23.655,-65.853L40.607,-17.835L-28.984,0L-166.382,-21.147L-242.035,0L-298.338,-17L0,-223.899Z" style="fill:rgb(0,167,176);fill-rule:nonzero;"/>
        </g>
        <g opacity="0.8">
            <g transform="matrix(1,0,0,1,1254.05,783.517)">
                <path d="M0,77.464C0,51.399 -21.13,30.269 -47.195,30.269C-56.225,30.269 -64.662,32.807 -71.834,37.205C-76.652,15.905 -95.692,0 -118.45,0C-135.884,0 -151.137,9.337 -159.485,23.282C-160.378,23.219 -161.28,23.186 -162.189,23.186C-177.295,23.186 -190.365,31.898 -196.653,44.571C-203.327,40.21 -211.301,37.672 -219.869,37.672C-242.431,37.672 -260.884,55.254 -262.282,77.464L0,77.464Z" style="fill:rgb(255,239,242);fill-rule:nonzero;"/>
            </g>
        </g>
        <g transform="matrix(1,0,0,1,428.942,824.29)">
            <path d="M0,55.008C0,55.008 753.963,0 915.828,16.76L732.658,55.008L0,55.008Z" style="fill:rgb(255,239,242);fill-rule:nonzero;"/>
        </g>
        <g opacity="0.8">
            <g transform="matrix(1,0,0,1,0,292.79)">
                <path d="M0,-67.538L1085.12,-38.032L0,0L0,-67.538Z" style="fill:rgb(255,239,242);fill-rule:nonzero;"/>
            </g>
        </g>
        <g opacity="0.8">
            <g transform="matrix(1,0,0,1,0,698.249)">
                <path d="M0,84.25L944.032,-39.75L0,124L0,84.25Z" style="fill:rgb(255,239,242);fill-rule:nonzero;"/>
            </g>
        </g>
        <g opacity="0.8">
            <g transform="matrix(-0.994051,0.108913,0.108913,0.994051,1526.45,709.391)">
                <path d="M-658.903,-45.886L92.845,-45.886L-446.724,13.231L-749.242,-35.989L-658.903,-45.886Z" style="fill:rgb(255,239,242);fill-rule:nonzero;"/>
            </g>
        </g>
        <g opacity="0.5">
            <g transform="matrix(1,0,0,1,2272,159)">
                <path d="M0,-48L-929,-18L0,0L0,-48Z" style="fill:rgb(255,239,242);fill-rule:nonzero;"/>
            </g>
        </g>
        <g opacity="0.8">
            <g transform="matrix(1,0,0,1,2272,524.594)">
                <path d="M0,-33.573L-977,-45.782L0,12.209L0,-33.573Z" style="fill:rgb(255,239,242);fill-rule:nonzero;"/>
            </g>
        </g>
        <g opacity="0.8">
            <g transform="matrix(1,0,0,1,681.294,125.457)">
                <path d="M0,141.778C3.307,99.873 -27.983,63.222 -69.888,59.915C-84.405,58.77 -98.291,61.779 -110.379,67.941C-115.423,33.086 -144.017,5.099 -180.604,2.212C-208.633,0 -234.339,13.076 -249.53,34.436C-250.958,34.222 -252.403,34.054 -253.865,33.938C-278.151,32.022 -300.269,44.371 -311.986,63.947C-322.163,56.089 -334.661,50.998 -348.435,49.911C-384.708,47.049 -416.605,72.974 -421.67,108.504L0,141.778Z" style="fill:rgb(255,239,242);fill-rule:nonzero;"/>
            </g>
        </g>
        <g opacity="0.8">
            <g transform="matrix(1,0,0,1,1764.27,374.994)">
                <path d="M0,118.223C0.849,74.53 37.038,39.796 80.832,40.643C96.003,40.936 110.096,45.464 122.003,53.071C130.792,17.522 163.301,-8.522 201.536,-7.782C230.829,-7.215 256.151,8.931 269.724,32.578C271.227,32.503 272.742,32.476 274.271,32.505C299.651,32.996 321.326,48.025 331.479,69.473C342.835,62.38 356.314,58.385 370.71,58.663C408.618,59.396 439.049,89.469 440.674,126.745L0,118.223Z" style="fill:rgb(255,239,242);fill-rule:nonzero;"/>
            </g>
        </g>
        <g transform="matrix(1,0,0,1,0,1197.14)">
            <path d="M0,-186.144L171,-177.839L354.016,-260.443L574.434,-219.141L955,-404.144L1433,-216.144L1481,-236.644C1481,-236.644 2061,-3.148 2111,35.354L2272,150.251L0,218L0,-186.144Z" style="fill:rgb(0,138,149);fill-rule:nonzero;"/>
        </g>
        <g transform="matrix(1,0,0,1,153.758,988.089)">
            <path d="M0,100.994L143.141,138.492L547.354,100.994C547.354,100.994 435.202,55.996 432.781,48.497C430.36,40.997 467.858,16.998 467.858,16.998L442.31,-20.603L420.676,-10.086L200.258,-51.388L17.242,31.216L-153.758,22.911L-153.758,119.911L-73.615,152.382L0,100.994Z" style="fill:rgb(0,167,176);fill-rule:nonzero;"/>
        </g>
        <g transform="matrix(1,0,0,1,1569.09,1057.29)">
            <path d="M0,80.173L62.896,68.148L71.836,10.902L18.941,-3.849L23.731,44.255L-35.918,84.022L0,80.173Z" style="fill:rgb(0,167,176);fill-rule:nonzero;"/>
        </g>
        <g transform="matrix(1,0,0,1,955,936.701)">
            <path d="M0,-143.701L-51,-41.701L-295.604,0L0,-143.701Z" style="fill:rgb(0,167,176);fill-rule:nonzero;"/>
        </g>
        <g transform="matrix(1,0,0,1,928.001,1117)">
            <path d="M0,-126L67,-82.803L126,0L5,0L-43,-28L-152,-42L-162,-82.803L0,-126Z" style="fill:rgb(0,167,176);fill-rule:nonzero;"/>
        </g>
        <g transform="matrix(1,0,0,1,1433,1018.09)">
            <path d="M0,-37.086L137,20.5C137,20.5 86.295,-40.849 80.295,-44.849C74.295,-48.849 57.925,-53.567 57.925,-53.567L48,-57.586L0,-37.086Z" style="fill:rgb(0,167,176);fill-rule:nonzero;"/>
        </g>
        <g transform="matrix(1,0,0,1,0,1309.03)">
            <path d="M0,-122.391L394.985,-270.444L639.359,-140.87L787,-140.87L977,-99.468L1401,-140.87L1707,-95.979L1785,-119.706L1983.54,-12.299L0,148.053L0,-122.391Z" style="fill:rgb(1,104,104);fill-rule:nonzero;"/>
        </g>
        <g transform="matrix(1,0,0,1,0,1162.75)">
            <path d="M0,23.888L0,89.263L104.482,23.888L115.814,-1.751L238.141,-65.375L0,23.888Z" style="fill:rgb(14,153,149);fill-rule:nonzero;"/>
        </g>
        <g transform="matrix(0.670606,0.741814,0.741814,-0.670606,487.314,971.072)">
            <path d="M-11.833,-113.766L162.839,-113.766L236.454,-48.498L248.166,-19.379L-11.833,-113.766Z" style="fill:rgb(14,153,149);fill-rule:nonzero;"/>
        </g>
        <g transform="matrix(1,0,0,1,787,1229.42)">
            <path d="M0,-61.256L145,-12.186L253,0L397.97,-40.162L190,-19.855L0,-61.256Z" style="fill:rgb(14,153,149);fill-rule:nonzero;"/>
        </g>
        <g transform="matrix(1,0,0,1,1785,1213.05)">
            <path d="M0,-23.728L6,-3.49L-78,0L0,-23.728Z" style="fill:rgb(14,153,149);fill-rule:nonzero;"/>
        </g>
        <g transform="matrix(-1,0,0,1,1902.5,1196.34)">
            <path d="M-10.907,33.078L0,33.078L-3.288,0L-8.741,0L-10.907,33.078Z" style="fill:rgb(120,87,46);fill-rule:nonzero;"/>
        </g>
        <g transform="matrix(-0.422151,-0.906525,-0.906525,0.422151,1906.47,1199.93)">
            <path d="M-11.946,3.935L6.102,3.935L6.87,5.584L-15.533,7.629L-11.946,3.935Z" style="fill:rgb(120,87,46);fill-rule:nonzero;"/>
        </g>
        <g transform="matrix(0.422197,-0.906504,-0.906504,-0.422197,1917.17,1213.36)">
            <path d="M-2.508,7.615L15.54,7.615L16.308,5.967L-6.095,3.92L-2.508,7.615Z" style="fill:rgb(120,87,46);fill-rule:nonzero;"/>
        </g>
        <g transform="matrix(1,0,0,1,1905.96,1212.88)">
            <path d="M0,-89.435L27.708,-86.946L55.088,-54.89L52.6,-21.4L25.634,0L-11.702,0L-43.646,-16.133L-51.113,-59.566L-29.126,-81.589L0,-89.435Z" style="fill:rgb(98,122,38);fill-rule:nonzero;"/>
        </g>
        <g transform="matrix(1,0,0,1,1933.67,1212.88)">
            <path d="M0,-86.945L18.432,-51.976L15.666,-25.701L-2.074,0L24.892,-21.399L27.38,-54.889L0,-86.945Z" style="fill:rgb(209,224,83);fill-rule:nonzero;"/>
        </g>
        <g transform="matrix(1,0,0,1,825.463,1266.21)">
            <path d="M0,74.489C0,74.489 2.116,46.806 36.996,38.553C71.876,30.301 47.015,11.87 85.698,5.934C124.382,0 138.986,29.188 158.856,27.283C178.727,25.378 195.608,4.479 216.638,20.812C237.668,37.145 237.138,48.059 237.138,48.059L0,74.489Z" style="fill:rgb(98,122,38);fill-rule:nonzero;"/>
        </g>
        <g transform="matrix(-1,0,0,1,587.305,1327.7)">
            <path d="M-10.907,33.078L0,33.078L-3.287,0L-8.741,0L-10.907,33.078Z" style="fill:rgb(120,87,46);fill-rule:nonzero;"/>
        </g>
        <g transform="matrix(-0.422197,-0.906504,-0.906504,0.422197,591.282,1331.29)">
            <path d="M-11.946,3.935L6.102,3.935L6.87,5.583L-15.533,7.63L-11.946,3.935Z" style="fill:rgb(120,87,46);fill-rule:nonzero;"/>
        </g>
        <g transform="matrix(0.422197,-0.906504,-0.906504,-0.422197,601.975,1344.72)">
            <path d="M-2.508,7.614L15.54,7.614L16.308,5.966L-6.095,3.919L-2.508,7.614Z" style="fill:rgb(120,87,46);fill-rule:nonzero;"/>
        </g>
        <g transform="matrix(1,0,0,1,590.77,1344.24)">
            <path d="M0,-89.434L27.709,-86.945L55.089,-54.89L52.6,-21.399L25.635,0L-11.702,0L-43.645,-16.133L-51.112,-59.565L-29.125,-81.588L0,-89.434Z" style="fill:rgb(98,122,38);fill-rule:nonzero;"/>
        </g>
        <g transform="matrix(1,0,0,1,618.479,1344.24)">
            <path d="M0,-86.944L18.432,-51.976L15.666,-25.701L-2.074,0L24.891,-21.398L27.38,-54.889L0,-86.944Z" style="fill:rgb(209,224,83);fill-rule:nonzero;"/>
        </g>
        <g transform="matrix(-1,0,0,1,2031.19,1179.8)">
            <path d="M-10.907,33.078L0,33.078L-3.288,0L-8.741,0L-10.907,33.078Z" style="fill:rgb(120,87,46);fill-rule:nonzero;"/>
        </g>
        <g transform="matrix(-0.422151,-0.906525,-0.906525,0.422151,2035.16,1183.39)">
            <path d="M-11.946,3.935L6.102,3.935L6.87,5.584L-15.533,7.629L-11.946,3.935Z" style="fill:rgb(120,87,46);fill-rule:nonzero;"/>
        </g>
        <g transform="matrix(0.422197,-0.906504,-0.906504,-0.422197,2045.86,1196.82)">
            <path d="M-2.508,7.615L15.54,7.615L16.308,5.967L-6.095,3.92L-2.508,7.615Z" style="fill:rgb(120,87,46);fill-rule:nonzero;"/>
        </g>
        <g transform="matrix(1,0,0,1,2034.65,1196.34)">
            <path d="M0,-89.435L27.709,-86.946L55.089,-54.89L52.6,-21.4L25.635,0L-11.701,0L-43.645,-16.133L-51.112,-59.566L-29.125,-81.589L0,-89.435Z" style="fill:rgb(98,122,38);fill-rule:nonzero;"/>
        </g>
        <g transform="matrix(1,0,0,1,2062.36,1196.34)">
            <path d="M0,-86.945L18.432,-51.976L15.666,-25.701L-2.074,0L24.891,-21.399L27.38,-54.889L0,-86.945Z" style="fill:rgb(209,224,83);fill-rule:nonzero;"/>
        </g>
        <g transform="matrix(-1,0,0,1,717.736,1316.64)">
            <path d="M-10.908,33.078L0,33.078L-3.288,0L-8.742,0L-10.908,33.078Z" style="fill:rgb(120,87,46);fill-rule:nonzero;"/>
        </g>
        <g transform="matrix(-0.422197,-0.906504,-0.906504,0.422197,721.713,1320.23)">
            <path d="M-11.946,3.935L6.102,3.935L6.87,5.583L-15.533,7.63L-11.946,3.935Z" style="fill:rgb(120,87,46);fill-rule:nonzero;"/>
        </g>
        <g transform="matrix(0.422197,-0.906504,-0.906504,-0.422197,732.407,1333.66)">
            <path d="M-2.508,7.614L15.54,7.614L16.308,5.966L-6.095,3.919L-2.508,7.614Z" style="fill:rgb(120,87,46);fill-rule:nonzero;"/>
        </g>
        <g transform="matrix(1,0,0,1,721.202,1333.18)">
            <path d="M0,-89.434L27.708,-86.945L55.088,-54.89L52.6,-21.399L25.634,0L-11.702,0L-43.646,-16.133L-51.113,-59.565L-29.125,-81.588L0,-89.434Z" style="fill:rgb(98,122,38);fill-rule:nonzero;"/>
        </g>
        <g transform="matrix(1,0,0,1,748.91,1333.18)">
            <path d="M0,-86.944L18.432,-51.975L15.666,-25.701L-2.074,0L24.891,-21.398L27.38,-54.889L0,-86.944Z" style="fill:rgb(209,224,83);fill-rule:nonzero;"/>
        </g>
        <g transform="matrix(-1,0,0,1,2178.39,1169.09)">
            <path d="M-13.346,40.476L0,40.476L-4.023,0L-10.697,0L-13.346,40.476Z" style="fill:rgb(120,87,46);fill-rule:nonzero;"/>
        </g>
        <g transform="matrix(-0.422174,-0.906515,-0.906515,0.422174,2183.26,1173.48)">
            <path d="M-14.618,4.816L7.468,4.816L8.407,6.832L-19.006,9.338L-14.618,4.816Z" style="fill:rgb(120,87,46);fill-rule:nonzero;"/>
        </g>
        <g transform="matrix(0.422174,-0.906515,-0.906515,-0.422174,2196.34,1189.92)">
            <path d="M-3.07,9.318L19.016,9.318L19.955,7.301L-7.458,4.797L-3.07,9.318Z" style="fill:rgb(120,87,46);fill-rule:nonzero;"/>
        </g>
        <g transform="matrix(1,0,0,1,2182.63,1189.32)">
            <path d="M0,-109.436L33.905,-106.39L67.409,-67.165L64.363,-26.185L31.367,0L-14.319,0L-53.406,-19.741L-62.544,-72.887L-35.64,-99.836L0,-109.436Z" style="fill:rgb(98,122,38);fill-rule:nonzero;"/>
        </g>
        <g transform="matrix(1,0,0,1,2216.54,1189.32)">
            <path d="M0,-106.39L22.554,-63.601L19.17,-31.45L-2.538,0L30.458,-26.185L33.504,-67.165L0,-106.39Z" style="fill:rgb(209,224,83);fill-rule:nonzero;"/>
        </g>
        <g transform="matrix(1,0,0,1,2272,1677.54)">
            <path d="M0,-495.043C0,-495.043 -1646.23,-310.551 -1913.26,-304.369C-2180.28,-298.188 -2272,-320.505 -2272,-320.505L-2272,0L0,0L0,-495.043Z" style="fill:rgb(228,223,59);fill-rule:nonzero;"/>
        </g>
        <g transform="matrix(1,0,0,1,1344.22,1247.26)">
            <path d="M0,74.488C0,74.488 2.116,46.806 36.996,38.553C71.876,30.3 47.015,11.869 85.698,5.934C124.382,0 138.986,29.188 158.856,27.282C178.728,25.377 195.608,4.479 216.638,20.811C237.668,37.144 237.138,48.059 237.138,48.059L0,74.488Z" style="fill:rgb(98,122,38);fill-rule:nonzero;"/>
        </g>
        <g transform="matrix(1,0,0,1,2272,1704.6)">
            <path d="M0,-495.043C0,-495.043 -1646.23,-310.551 -1913.26,-304.369C-2180.28,-298.188 -2272,-320.505 -2272,-320.505L-2272,0L0,0L0,-495.043Z" style="fill:rgb(163,191,68);fill-rule:nonzero;"/>
        </g>
        <g transform="matrix(1,0,0,1,520.833,1429.1)">
            <path d="M0,74.389C0,74.389 7.449,37.775 55.408,32.578C103.367,27.383 73.244,-1.382 125.895,-2.847C178.545,-4.312 193.174,37.106 220.028,37.88C246.882,38.654 272.915,13.565 298.271,38.889C323.628,64.212 321.098,78.701 321.098,78.701L0,74.389Z" style="fill:rgb(98,122,38);fill-rule:nonzero;"/>
        </g>
        <g transform="matrix(1,0,0,1,1186.63,1449.79)">
            <path d="M0,82.334C0,82.334 7.209,44.662 56.373,38.755C105.537,32.848 74.273,3.683 128.299,1.549C182.324,-0.584 197.834,41.754 225.407,42.228C252.98,42.7 279.401,16.638 305.731,42.327C332.061,68.017 329.637,82.918 329.637,82.918L0,82.334Z" style="fill:rgb(83,99,33);fill-rule:nonzero;"/>
        </g>
        <g transform="matrix(-1,0,0,1,165.308,1407.3)">
            <path d="M-32.997,100.067L0,100.067L-9.947,0L-26.446,0L-32.997,100.067Z" style="fill:rgb(120,87,46);fill-rule:nonzero;"/>
        </g>
        <g transform="matrix(-0.422169,-0.906517,-0.906517,0.422169,177.343,1418.16)">
            <path d="M-36.14,11.906L18.461,11.906L20.783,16.892L-46.99,23.084L-36.14,11.906Z" style="fill:rgb(120,87,46);fill-rule:nonzero;"/>
        </g>
        <g transform="matrix(0.422169,-0.906517,-0.906517,-0.422169,209.692,1458.79)">
            <path d="M-7.589,23.037L47.012,23.037L49.334,18.051L-18.439,11.859L-7.589,23.037Z" style="fill:rgb(120,87,46);fill-rule:nonzero;"/>
        </g>
        <g transform="matrix(1,0,0,1,298.068,1012.81)">
            <path d="M0,404.099C-79.857,416.559 -157.514,417.369 -232.51,404.099L-116.255,-13.27L0,404.099Z" style="fill:rgb(98,122,38);fill-rule:nonzero;"/>
        </g>
        <g transform="matrix(0.97274,0.231896,0.231896,-0.97274,37.3237,1388.88)">
            <path d="M50.264,-19.527C120.768,-13.475 190.693,4.755 260.137,33.202L50.264,412.235L237.213,43.6C237.213,43.6 140.956,-10.163 50.264,-19.527" style="fill:rgb(209,224,83);fill-rule:nonzero;"/>
        </g>
        <g transform="matrix(-1,0,0,1,393.366,1428.55)">
            <path d="M-24.032,72.88L0,72.88L-7.244,0L-19.261,0L-24.032,72.88Z" style="fill:rgb(120,87,46);fill-rule:nonzero;"/>
        </g>
        <g transform="matrix(-0.422176,-0.906514,-0.906514,0.422176,402.131,1436.46)">
            <path d="M-26.322,8.672L13.446,8.672L15.137,12.303L-34.224,16.812L-26.322,8.672Z" style="fill:rgb(120,87,46);fill-rule:nonzero;"/>
        </g>
        <g transform="matrix(0.422176,-0.906514,-0.906514,-0.422176,425.691,1466.06)">
            <path d="M-5.528,16.778L34.24,16.778L35.931,13.147L-13.43,8.637L-5.528,16.778Z" style="fill:rgb(120,87,46);fill-rule:nonzero;"/>
        </g>
        <g transform="matrix(1,0,0,1,490.058,1141.24)">
            <path d="M0,294.312C-58.161,303.387 -114.72,303.977 -169.341,294.312L-84.67,-9.665L0,294.312Z" style="fill:rgb(98,122,38);fill-rule:nonzero;"/>
        </g>
        <g transform="matrix(0.972741,0.231896,0.231896,-0.972741,300.153,1415.14)">
            <path d="M36.608,-14.222C87.957,-9.814 138.885,3.463 189.461,24.182L36.608,300.238L172.767,31.754C172.767,31.754 102.66,-7.403 36.608,-14.222" style="fill:rgb(209,224,83);fill-rule:nonzero;"/>
        </g>
        <g transform="matrix(-1,0,0,1,2184.54,1455.38)">
            <path d="M-15.67,47.521L0,47.521L-4.724,0L-12.559,0L-15.67,47.521Z" style="fill:rgb(120,87,46);fill-rule:nonzero;"/>
        </g>
        <g transform="matrix(-0.422174,-0.906515,-0.906515,0.422174,2190.25,1460.54)">
            <path d="M-17.163,5.654L8.767,5.654L9.87,8.022L-22.316,10.963L-17.163,5.654Z" style="fill:rgb(120,87,46);fill-rule:nonzero;"/>
        </g>
        <g transform="matrix(0.422142,-0.90653,-0.90653,-0.422142,2205.61,1479.83)">
            <path d="M-3.604,10.94L22.326,10.94L23.429,8.572L-8.757,5.633L-3.604,10.94Z" style="fill:rgb(120,87,46);fill-rule:nonzero;"/>
        </g>
        <g transform="matrix(1,0,0,1,2247.58,1268.04)">
            <path d="M0,191.905C-37.924,197.822 -74.803,198.207 -110.418,191.905L-55.209,-6.302L0,191.905Z" style="fill:rgb(98,122,38);fill-rule:nonzero;"/>
        </g>
        <g transform="matrix(0.972741,0.231894,0.231894,-0.972741,2123.76,1446.64)">
            <path d="M23.87,-9.273C57.35,-6.4 90.559,2.258 123.537,15.768L23.87,195.769L112.651,20.706C112.651,20.706 66.939,-4.825 23.87,-9.273" style="fill:rgb(209,224,83);fill-rule:nonzero;"/>
        </g>
        <g transform="matrix(1,0,0,1,0,1872.11)">
            <path d="M0,-415.024C0,-415.024 1061,-344.761 1497,-351.925C1933,-359.09 2272,-384.494 2272,-384.494L2272,-0.079L0,0L0,-415.024Z" style="fill:rgb(149,181,60);fill-rule:nonzero;"/>
        </g>
        <g transform="matrix(1,0,0,1,0,1872.11)">
            <path d="M0,-390.671L0,0L2272,-0.079L2272,-360.14C2272,-360.14 1933,-334.737 1497,-327.572C1061,-320.407 0,-390.671 0,-390.671" style="fill:rgb(121,160,35);fill-rule:nonzero;"/>
        </g>
        <g transform="matrix(-1,0,0,1,1827.46,1517.26)">
            <path d="M-33.77,102.411L0,102.411L-10.18,0L-27.066,0L-33.77,102.411Z" style="fill:rgb(120,87,46);fill-rule:nonzero;"/>
        </g>
        <g transform="matrix(-0.422173,-0.906515,-0.906515,0.422173,1839.78,1528.37)">
            <path d="M-36.986,12.185L18.894,12.185L21.27,17.287L-48.09,23.625L-36.986,12.185Z" style="fill:rgb(120,87,46);fill-rule:nonzero;"/>
        </g>
        <g transform="matrix(0.422173,-0.906515,-0.906515,-0.422173,1872.89,1569.96)">
            <path d="M-7.767,23.576L48.113,23.576L50.489,18.474L-18.871,12.136L-7.767,23.576Z" style="fill:rgb(120,87,46);fill-rule:nonzero;"/>
        </g>
        <g transform="matrix(1,0,0,1,1838.19,1568.46)">
            <path d="M0,-276.89L85.787,-269.183L170.557,-169.939L162.85,-66.251L79.365,0L-36.229,0L-135.126,-49.947L-158.245,-184.414L-90.173,-252.6L0,-276.89Z" style="fill:rgb(98,122,38);fill-rule:nonzero;"/>
        </g>
        <g transform="matrix(1,0,0,1,1923.98,1568.46)">
            <path d="M0,-269.183L57.065,-160.919L48.502,-79.572L-6.422,0L77.063,-66.251L84.77,-169.939L0,-269.183Z" style="fill:rgb(209,224,83);fill-rule:nonzero;"/>
        </g>
        <g transform="matrix(-1,0,0,1,2063.92,1530.62)">
            <path d="M-22.189,67.294L0,67.294L-6.688,0L-17.784,0L-22.189,67.294Z" style="fill:rgb(120,87,46);fill-rule:nonzero;"/>
        </g>
        <g transform="matrix(-0.422182,-0.906511,-0.906511,0.422182,2072.01,1537.92)">
            <path d="M-24.304,8.007L12.415,8.007L13.976,11.359L-31.6,15.523L-24.304,8.007Z" style="fill:rgb(120,87,46);fill-rule:nonzero;"/>
        </g>
        <g transform="matrix(0.422182,-0.906511,-0.906511,-0.422182,2093.76,1565.25)">
            <path d="M-5.104,15.491L31.615,15.491L33.176,12.139L-12.4,7.974L-5.104,15.491Z" style="fill:rgb(120,87,46);fill-rule:nonzero;"/>
        </g>
        <g transform="matrix(1,0,0,1,2070.97,1564.26)">
            <path d="M0,-181.944L56.371,-176.881L112.073,-111.667L107.009,-43.533L52.151,0L-23.807,0L-88.792,-32.82L-103.983,-121.178L-59.253,-165.983L0,-181.944Z" style="fill:rgb(98,122,38);fill-rule:nonzero;"/>
        </g>
        <g transform="matrix(1,0,0,1,2127.34,1564.26)">
            <path d="M0,-176.881L37.497,-105.74L31.87,-52.286L-4.22,0L50.638,-43.533L55.702,-111.667L0,-176.881Z" style="fill:rgb(209,224,83);fill-rule:nonzero;"/>
        </g>
        <g transform="matrix(-1,0,0,1,1534.13,1552.6)">
            <path d="M-24.32,73.758L0,73.758L-7.331,0L-19.492,0L-24.32,73.758Z" style="fill:rgb(120,87,46);fill-rule:nonzero;"/>
        </g>
        <g transform="matrix(-0.422163,-0.90652,-0.90652,0.422163,1543,1560.61)">
            <path d="M-26.638,8.776L13.607,8.776L15.319,12.451L-34.635,17.014L-26.638,8.776Z" style="fill:rgb(120,87,46);fill-rule:nonzero;"/>
        </g>
        <g transform="matrix(0.422163,-0.90652,-0.90652,-0.422163,1566.85,1590.56)">
            <path d="M-5.594,16.979L34.651,16.979L36.363,13.304L-13.591,8.741L-5.594,16.979Z" style="fill:rgb(120,87,46);fill-rule:nonzero;"/>
        </g>
        <g transform="matrix(1,0,0,1,1541.86,1589.48)">
            <path d="M0,-199.421L61.785,-193.871L122.838,-122.394L117.288,-47.716L57.16,0L-26.092,0L-97.32,-35.973L-113.971,-132.818L-64.943,-181.927L0,-199.421Z" style="fill:rgb(98,122,38);fill-rule:nonzero;"/>
        </g>
        <g transform="matrix(1,0,0,1,1603.64,1589.48)">
            <path d="M0,-193.871L41.1,-115.897L34.933,-57.308L-4.625,0L55.503,-47.716L61.053,-122.393L0,-193.871Z" style="fill:rgb(209,224,83);fill-rule:nonzero;"/>
        </g>
        <g transform="matrix(1,0,0,1,350.556,1614.86)">
            <path d="M0,65.209C0,65.209 4.766,36.858 41.508,31.603C78.25,26.348 54.331,5.02 94.779,2.51C135.227,0 147.563,31.465 168.233,31.355C188.903,31.244 208.263,11.269 228.426,30.075C248.59,48.882 247.024,60.089 247.024,60.089L0,65.209Z" style="fill:rgb(83,99,33);fill-rule:nonzero;"/>
        </g>
        <g transform="matrix(1,0,0,1,168.22,1617.29)">
            <path d="M0,65.209C0,65.209 4.767,36.858 41.508,31.603C78.25,26.347 54.331,5.02 94.779,2.51C135.227,0 147.563,31.465 168.233,31.355C188.904,31.244 208.263,11.268 228.426,30.074C248.59,48.881 247.024,60.088 247.024,60.088L0,65.209Z" style="fill:rgb(98,122,38);fill-rule:nonzero;"/>
        </g>
        <g transform="matrix(1,0,0,1,2272,1873.2)">
            <path d="M0,-300.552C0,-300.552 -949.821,-232.665 -1385.21,-215.113C-1805.25,-198.178 -2272,-196.362 -2272,-196.362L-2272,-0.057L0,0L0,-300.552Z" style="fill:rgb(121,183,62);fill-rule:nonzero;"/>
        </g>
        <g transform="matrix(1,0,0,1,0,1769.01)">
            <path d="M0,-66.909L0,104.133L2272,104.19L2272,-171.099C2272,-171.099 1322.18,-103.213 886.794,-85.66C466.752,-68.725 0,-66.909 0,-66.909" style="fill:rgb(82,136,42);fill-rule:nonzero;"/>
        </g>
        <g transform="matrix(0.323783,0.946131,0.946131,-0.323783,544.568,1486.87)">
            <path d="M328.078,-234.483C328.078,-234.483 262.995,235.388 270.75,261.489L328.078,459.031L462.339,157.842L328.078,-234.483Z" style="fill:rgb(66,61,54);fill-rule:nonzero;"/>
        </g>
        <g transform="matrix(0.540437,0.841384,0.841384,-0.540437,1059.84,1438.96)">
            <path d="M-4.32,-134.869L165.374,-134.869L240.291,-3.649L58.877,-44.359L-4.32,-134.869Z" style="fill:rgb(68,63,58);fill-rule:nonzero;"/>
        </g>
        <g transform="matrix(0.748847,-0.662743,-0.662743,-0.748847,1121.39,1582.7)">
            <path d="M-29.656,118.579L260.703,118.579L314.521,80.081L74.078,23.517L-29.656,118.579Z" style="fill:rgb(81,76,69);fill-rule:nonzero;"/>
        </g>
        <g transform="matrix(-1,0,0,1,103.089,1619.71)">
            <path d="M-20.689,62.743L0,62.743L-6.236,0L-16.581,0L-20.689,62.743Z" style="fill:rgb(120,87,46);fill-rule:nonzero;"/>
        </g>
        <g transform="matrix(-0.422166,-0.906519,-0.906519,0.422166,110.634,1626.52)">
            <path d="M-22.66,7.465L11.576,7.465L13.031,10.591L-29.463,14.474L-22.66,7.465Z" style="fill:rgb(120,87,46);fill-rule:nonzero;"/>
        </g>
        <g transform="matrix(0.422166,-0.906519,-0.906519,-0.422166,130.917,1651.99)">
            <path d="M-4.758,14.444L29.477,14.444L30.933,11.318L-11.562,7.436L-4.758,14.444Z" style="fill:rgb(120,87,46);fill-rule:nonzero;"/>
        </g>
        <g transform="matrix(1,0,0,1,109.662,1651.08)">
            <path d="M0,-169.641L52.559,-164.919L104.493,-104.117L99.772,-40.59L48.624,0L-22.196,0L-82.787,-30.601L-96.951,-112.985L-55.246,-154.759L0,-169.641Z" style="fill:rgb(98,122,38);fill-rule:nonzero;"/>
        </g>
        <g transform="matrix(1,0,0,1,162.221,1651.08)">
            <path d="M0,-164.919L34.961,-98.59L29.715,-48.751L-3.935,0L47.213,-40.59L51.935,-104.116L0,-164.919Z" style="fill:rgb(209,224,83);fill-rule:nonzero;"/>
        </g>
        <g transform="matrix(1,0,0,1,1872.7,1767.33)">
            <path d="M0,105.883C0,105.883 7.739,59.849 67.398,51.316C127.058,42.781 88.219,8.151 153.896,4.075C219.573,0 239.604,51.091 273.167,50.912C306.729,50.733 338.165,18.297 370.905,48.834C403.645,79.371 393.67,105.883 393.67,105.883L0,105.883Z" style="fill:rgb(83,99,33);fill-rule:nonzero;"/>
        </g>
        <g transform="matrix(1,0,0,1,1570.14,1767.33)">
            <path d="M0,105.883C0,105.883 7.739,59.849 67.398,51.316C127.058,42.781 88.219,8.151 153.896,4.075C219.573,0 239.604,51.091 273.167,50.912C306.73,50.733 338.165,18.297 370.905,48.834C403.645,79.371 393.67,105.883 393.67,105.883L0,105.883Z" style="fill:rgb(98,122,38);fill-rule:nonzero;"/>
        </g>
    </g>
    <defs>
        <linearGradient id="_Linear1" x1="0" y1="0" x2="1" y2="0" gradientUnits="userSpaceOnUse" gradientTransform="matrix(-4.07368e-08,1,1,4.07368e-08,0.500321,-0.500321)"><stop offset="0" style="stop-color:rgb(191,234,255);stop-opacity:1"/><stop offset="0.6" style="stop-color:rgb(191,234,255);stop-opacity:1"/><stop offset="0.82" style="stop-color:rgb(142,211,255);stop-opacity:1"/><stop offset="1" style="stop-color:rgb(106,149,255);stop-opacity:1"/></linearGradient>
    </defs>
</svg>
